<svg height="512" viewBox="0 0 58 55" width="512" xmlns="http://www.w3.org/2000/svg"><g id="Page-1" fill="none" fill-rule="evenodd"><g id="031---Like" fill-rule="nonzero"><rect id="Rectangle-path" fill="#285680" height="32" rx="4" width="18" y="23"/><circle id="Oval" cx="9" cy="29" fill="#b0d3f0" r="2"/><path id="Shape" d="m4 46c-.55228475 0-1-.4477153-1-1v-6c0-.5522847.44771525-1 1-1s1 .4477153 1 1v6c0 .5522847-.44771525 1-1 1z" fill="#b0d3f0"/><path id="Shape" d="m4 51c-.55228475 0-1-.4477153-1-1v-1c0-.5522847.44771525-1 1-1s1 .4477153 1 1v1c0 .5522847-.44771525 1-1 1z" fill="#b0d3f0"/><path id="Shape" d="m54 31h-2c2.209139 0 4 1.790861 4 4s-1.790861 4-4 4h-2c2.209139 0 4 1.790861 4 4s-1.790861 4-4 4h-3c2.209139 0 4 1.790861 4 4s-1.790861 4-4 4h-16c-4.418278 0-8-3.581722-8-8v-21.42c-.001341-1.6227076.5606457-3.1955633 1.59-4.45 2.59-3.13 7.41-9.47 7.41-13.13v-5.1c-.0016352-.57499218.2442824-1.1228727.6749878-1.50380774.4307055-.38093504 1.0045278-.5580689 1.5750122-.48619226 2.37.28 5.75 1.94 5.75 9.09-.1008866 2.5177676-.6848143 4.9926706-1.72 7.29-.5855243 1.2381782-.4968252 2.6898546.2350889 3.8475358.731914 1.1576811 2.005269 1.8603895 3.3749111 1.8624642h12.11c2.209139 0 4 1.790861 4 4s-1.790861 4-4 4z" fill="#cbb292"/><g fill="#7f6e5d"><path id="Shape" d="m52.5 29h-4c-.5522847 0-1 .4477153-1 1s.4477153 1 1 1h4c.5522847 0 1-.4477153 1-1s-.4477153-1-1-1z"/><path id="Shape" d="m50.5 37h-3c-.5522847 0-1 .4477153-1 1s.4477153 1 1 1h3c.5522847 0 1-.4477153 1-1s-.4477153-1-1-1z"/><path id="Shape" d="m47.5 45h-4c-.5522847 0-1 .4477153-1 1s.4477153 1 1 1h4c.5522847 0 1-.4477153 1-1s-.4477153-1-1-1z"/><path id="Shape" d="m43.5 39h-1c-.5522847 0-1-.4477153-1-1s.4477153-1 1-1h1c.5522847 0 1 .4477153 1 1s-.4477153 1-1 1z"/><path id="Shape" d="m44.5 31h-1c-.5522847 0-1-.4477153-1-1s.4477153-1 1-1h1c.5522847 0 1 .4477153 1 1s-.4477153 1-1 1z"/><path id="Shape" d="m27 49c-.5522847 0-1-.4477153-1-1v-2c0-.5522847.4477153-1 1-1s1 .4477153 1 1v2c0 .5522847-.4477153 1-1 1z"/><path id="Shape" d="m27 43c-.5522847 0-1-.4477153-1-1v-8c0-.5522847.4477153-1 1-1s1 .4477153 1 1v8c0 .5522847-.4477153 1-1 1z"/></g></g></g></svg>